# xmcd CD database file
#
# Track frame offsets:
#	180
#	13138
#	30464
#	47034
#	67420
#	80287
#	94484
#	110818
#	127968
#	139701
#
# Disc length: 2178 seconds
#
# Revision: 0
# Processed by: cddbd v1.5.2PL0 Copyright (c) Steve Scherf et al.
# Submitted via: CDex 1.70beta2
#
DISCID=8c08800a
DTITLE=Wheeler Billy Edd - Songs I Wrote With Chet
DYEAR=1995
DGENRE=Country
TTITLE0=Me And Buster Too
TTITLE1=Music City News
TTITLE2=Hormones
TTITLE3=My Montez
TTITLE4=Keep It Country
TTITLE5=Working For The Minimum Wage
TTITLE6=Take Me To Heaven (One More Time)
TTITLE7=Those Old Songs Are Coming Back Again
TTITLE8=I Still Write Your Name In The Snow
TTITLE9=Django
EXTD=YEAR: 1995
EXTT0=
EXTT1=
EXTT2=
EXTT3=
EXTT4=
EXTT5=
EXTT6=
EXTT7=
EXTT8=
EXTT9=
PLAYORDER=
